<?xml version="1.0" encoding="UTF-8" standalone="no"?>
<!DOCTYPE svg PUBLIC "-//W3C//DTD SVG 1.1//EN" "http://www.w3.org/Graphics/SVG/1.1/DTD/svg11.dtd">
<svg version="1.1" xmlns="http://www.w3.org/2000/svg" xmlns:xlink="http://www.w3.org/1999/xlink" preserveAspectRatio="xMidYMid meet" viewBox="0 0 640 640" width="640" height="640"><defs><path d="M326.41 312.84L381.51 339.84" id="b2KK4eevUK"></path><path d="M381.63 339.8L382.43 258.76L326.44 231.3L326.42 312.86" id="a6Q9KQhwk"></path><path d="M261.12 345.34L326.41 312.85L381.62 339.8L316.7 372.53L316.7 372.53L261.12 345.34Z" id="c6HaZ6r5aL"></path><path d="M250.31 322.52L312.65 352.99L312.55 272.07L250.31 241.49L250.31 241.49L250.31 322.52Z" id="bfb8Dk5l5"></path><path d="M312.6 286.5L294.44 295.62L294.44 280.74L341.26 257.33L341.26 272.21L326.44 279.58L326.44 312.82L312.6 319.74L312.6 286.5Z" id="e128RlmgL4"></path><path d="M250.27 241.52L312.14 271.88L382.86 236.51L321.18 206.15L321.18 206.15L250.27 241.52Z" id="bvkenKXG1"></path></defs><g><g><g><use xlink:href="#b2KK4eevUK" opacity="1" fill="#008cd6" fill-opacity="1"></use><g><use xlink:href="#b2KK4eevUK" opacity="1" fill-opacity="0" stroke="#000000" stroke-width="1" stroke-opacity="0"></use></g></g><g><use xlink:href="#a6Q9KQhwk" opacity="1" fill="#008cd6" fill-opacity="1"></use><g><use xlink:href="#a6Q9KQhwk" opacity="1" fill-opacity="0" stroke="#000000" stroke-width="1" stroke-opacity="0"></use></g></g><g><use xlink:href="#c6HaZ6r5aL" opacity="1" fill="#0075c2" fill-opacity="1"></use><g><use xlink:href="#c6HaZ6r5aL" opacity="1" fill-opacity="0" stroke="#000000" stroke-width="1" stroke-opacity="0"></use></g></g><g><use xlink:href="#bfb8Dk5l5" opacity="1" fill="#00b2bc" fill-opacity="1"></use><g><use xlink:href="#bfb8Dk5l5" opacity="1" fill-opacity="0" stroke="#000000" stroke-width="1" stroke-opacity="0"></use></g></g><g><use xlink:href="#e128RlmgL4" opacity="1" fill="#ffffff" fill-opacity="1"></use><g><use xlink:href="#e128RlmgL4" opacity="1" fill-opacity="0" stroke="#000000" stroke-width="1" stroke-opacity="0"></use></g></g><g><use xlink:href="#bvkenKXG1" opacity="1" fill="#26b7bc" fill-opacity="1"></use><g><use xlink:href="#bvkenKXG1" opacity="1" fill-opacity="0" stroke="#000000" stroke-width="1" stroke-opacity="0"></use></g></g></g></g></svg>